<svg width="20" height="19" viewBox="0 0 20 19" fill="none" xmlns="http://www.w3.org/2000/svg">
<path d="M16.9 18.9996L11.425 13.5246L13.525 11.4246L19 16.8996L16.9 18.9996ZM3.1 18.9996L1 16.8996L7.9 9.99961L6.2 8.29961L5.5 8.99961L4.225 7.72461V9.77461L3.525 10.4746L0.5 7.44961L1.2 6.74961H3.25L2 5.49961L5.55 1.94961C5.88333 1.61628 6.24167 1.37461 6.625 1.22461C7.00833 1.07461 7.4 0.999609 7.8 0.999609C8.2 0.999609 8.59167 1.07461 8.975 1.22461C9.35833 1.37461 9.71667 1.61628 10.05 1.94961L7.75 4.24961L9 5.49961L8.3 6.19961L10 7.89961L12.25 5.64961C12.1833 5.46628 12.1292 5.27461 12.0875 5.07461C12.0458 4.87461 12.025 4.67461 12.025 4.47461C12.025 3.49128 12.3625 2.66211 13.0375 1.98711C13.7125 1.31211 14.5417 0.974609 15.525 0.974609C15.775 0.974609 16.0125 0.999609 16.2375 1.04961C16.4625 1.09961 16.6917 1.17461 16.925 1.27461L14.45 3.74961L16.25 5.54961L18.725 3.07461C18.8417 3.30794 18.9208 3.53711 18.9625 3.76211C19.0042 3.98711 19.025 4.22461 19.025 4.47461C19.025 5.45794 18.6875 6.28711 18.0125 6.96211C17.3375 7.63711 16.5083 7.97461 15.525 7.97461C15.325 7.97461 15.125 7.95794 14.925 7.92461C14.725 7.89128 14.5333 7.83294 14.35 7.74961L3.1 18.9996Z" fill="#2B2B2B"/>
</svg>
